<svg version="1.1" xmlns="http://www.w3.org/2000/svg">
    <symbol id="close" fill="blue" viewBox="0 0 14 14">
        <path d="M1 1 12 12M1 13 13 1" stroke-width="2"/>
    </symbol>
    <symbol id="exit" viewBox="0 0 650 512">
        <polygon fill = "var(--third2-color)" points="390 30 560 70 560 440 390 480" />
        <polyline fill="none" stroke-linejoin="round" stroke-width="30" stroke="var(--third-color)" points="390 170  390 30  560 70  560 440  390 480  390 340  390 480  640 500  640 10  390 30 "/>
        <line fill="none" stroke-linecap="round" stroke-width="30" stroke="var(--third-color)" x1="500" x2="500" y1="300" y2="250"/>
        <path fill = "var(--third-color)" d="M400 224h-44l-26.12-53.25c-12.5-25.5-35.38-44.25-61.75-51L197 98.63C189.5 96.84 181.1 95.97 174.5 95.97c-20.88 0-41.33 6.81-58.26 19.78L76.5 146.3C68.31 152.5 64.01 162 64.01 171.6c0 17.11 13.67 32.02 32.02 32.02c6.808 0 13.67-2.158 19.47-6.616l39.63-30.38c5.92-4.488 13.01-6.787 19.53-6.787c2.017 0 3.981 .2196 5.841 .6623l14.62 4.25l-37.5 87.5C154.1 260.3 152.5 268.8 152.5 277.2c0 22.09 11.49 43.52 31.51 55.29l85 50.13l-27.5 87.75c-.9875 3.174-1.458 6.388-1.458 9.55c0 13.65 8.757 26.31 22.46 30.58C265.6 511.5 268.9 512 272 512c13.62 0 26.25-8.75 30.5-22.5l31.75-101c1.211-4.278 1.796-8.625 1.796-12.93c0-16.57-8.661-32.51-23.55-41.44l-61.13-36.12l31.25-78.38l20.25 41.5C310.9 277.4 327.9 288 345.1 288H400c17.62 0 32-14.38 32-32C432 238.3 417.6 224 400 224zM288 96c26.5 0 48-21.5 48-48s-21.5-48-48-48s-48 21.5-48 48S261.5 96 288 96zM129.8 317.5L114.9 352H48c-17.62 0-32 14.38-32 32s14.38 32 32 32h77.5c19.25 0 36.5-11.5 44-29.12l8.875-20.5l-10.75-6.25C150.4 349.9 137.6 334.8 129.8 317.5z"/>
    </symbol>
    <symbol id="edit" fill="var(--third-color)" viewBox="0 0 48 48">
        <path clip-rule="evenodd" d="M47,5.025c0.006,0.258-0.085,0.518-0.281,0.715  c-0.043,0.042-0.096,0.062-0.144,0.095l-2.69,2.69l0.69,0.69c0.048,0.033,0.102,0.053,0.144,0.095  c0.196,0.197,0.287,0.457,0.281,0.714c0.006,0.258-0.085,0.518-0.281,0.715c-0.042,0.042-0.096,0.062-0.144,0.095L12.861,42.55  c-0.111,0.213-0.287,0.392-0.523,0.481l-9.8,3.844c-0.058,0.031-0.117,0.051-0.181,0.071l-0.012,0.005  c-0.008,0.003-0.017,0.001-0.024,0.004C2.228,46.98,2.135,47.001,2.035,47c-0.098,0.003-0.189-0.015-0.283-0.041  c-0.02-0.006-0.039-0.002-0.06-0.009c-0.008-0.003-0.013-0.01-0.021-0.013c-0.088-0.033-0.164-0.083-0.24-0.141  c-0.039-0.028-0.08-0.053-0.113-0.086s-0.058-0.074-0.086-0.113c-0.058-0.075-0.107-0.152-0.141-0.24  c-0.004-0.008-0.01-0.013-0.013-0.021c-0.007-0.02-0.003-0.04-0.009-0.061c-0.025-0.092-0.043-0.184-0.041-0.281  c0-0.1,0.02-0.193,0.045-0.287c0.004-0.008,0.001-0.016,0.004-0.023l0.006-0.013c0.02-0.063,0.039-0.123,0.07-0.181l3.844-9.8  c0.09-0.236,0.269-0.412,0.482-0.523L33.242,7.406c-0.264-0.834-1.035-1.443-1.957-1.443c-0.609,0-1.151,0.269-1.528,0.689  L29.754,6.65l-3.25,3.25l0.003,0.003L19.67,16.74c-0.381,0.381-0.999,0.381-1.381,0c-0.381-0.381-0.381-1,0-1.381L28.338,5.311  c0.017-0.017,0.038-0.022,0.056-0.037c0.729-0.766,1.751-1.249,2.892-1.249c1.45,0,2.699,0.784,3.396,1.942l2.514-2.513  c0.033-0.047,0.053-0.101,0.095-0.143c0.197-0.197,0.457-0.288,0.715-0.281c0.258-0.007,0.518,0.084,0.715,0.281  c0.042,0.042,0.062,0.096,0.095,0.143l0.69,0.69l2.69-2.69c0.033-0.047,0.053-0.101,0.095-0.143  c0.197-0.197,0.457-0.288,0.715-0.281c0.258-0.007,0.518,0.084,0.715,0.281c0.042,0.042,0.062,0.096,0.095,0.143l2.762,2.762  c0.048,0.033,0.101,0.053,0.144,0.095C46.915,4.508,47.006,4.768,47,5.025z M3.875,44.155l6.376-2.502l-3.875-3.875L3.875,44.155z   M38.004,5.406L7.385,36.025l4.619,4.619l30.619-30.619L38.004,5.406z M43.004,3.406l-2.119,2.119l1.619,1.619l2.119-2.119  L43.004,3.406z" fill-rule="evenodd"/>
    </symbol>
    <symbol id="delete" viewBox="0 0 64 64">
        <path fill = "var(--third-color)" d="M52,8H42V4a4,4,0,0,0-4-4H26a4,4,0,0,0-4,4V8H12a6,6,0,0,0-6,6v6a2,2,0,0,0,2,2h2V56a8,8,0,0,0,8,8H46a8,8,0,0,0,8-8V22h2a2,2,0,0,0,2-2V14A6,6,0,0,0,52,8ZM26,4H38V8H26ZM50,56a4,4,0,0,1-4,4H18a4,4,0,0,1-4-4V22H50Zm4-38H10V14a2,2,0,0,1,2-2H52a2,2,0,0,1,2,2Z"/>
        <path fill = "var(--third-color)" d="M21,56a2,2,0,0,0,2-2V30a2,2,0,0,0-4,0V54A2,2,0,0,0,21,56Z"/>
        <path fill = "var(--third-color)" d="M32,56a2,2,0,0,0,2-2V30a2,2,0,0,0-4,0V54A2,2,0,0,0,32,56Z"/>
        <path fill = "var(--third-color)" d="M43,56a2,2,0,0,0,2-2V30a2,2,0,0,0-4,0V54A2,2,0,0,0,43,56Z"/>
    </symbol>
    <symbol id="plus" fill="var(--third-color)" viewBox="0 0 32 32">
        <path d="M16,29A13,13,0,1,1,29,16,13,13,0,0,1,16,29ZM16,5A11,11,0,1,0,27,16,11,11,0,0,0,16,5Z" />
        <path d="M16,23a1,1,0,0,1-1-1V10a1,1,0,0,1,2,0V22A1,1,0,0,1,16,23Z"/>
        <path d="M22,17H10a1,1,0,0,1,0-2H22a1,1,0,0,1,0,2Z"/>
    </symbol>
    <symbol id="ok" viewBox="0 0 128 128">
        <path fill="#00ff00" d="M116.158,29.336l-4.975-4.975c-3.469-3.469-9.088-3.478-12.549-0.019L48.103,74.875L29.364,56.136  c-3.459-3.46-9.078-3.45-12.549,0.021l-4.974,4.974c-3.47,3.47-3.48,9.089-0.02,12.549L41.8,103.657  c1.741,1.741,4.026,2.602,6.31,2.588c2.279,0.011,4.559-0.852,6.297-2.59l61.771-61.771  C119.637,38.424,119.631,32.807,116.158,29.336z"/>
    </symbol>
    <symbol id="cancel"  viewBox="0 0 128 128">
        <path fill="#ff0000" d="M81.646,64l22.248-22.249c3.48-3.48,3.474-9.131-0.019-12.623l-5.006-5.005  c-3.489-3.49-9.142-3.499-12.622-0.019L64,46.354L41.753,24.106c-3.484-3.483-9.133-3.472-12.624,0.018l-5.005,5.005  c-3.491,3.492-3.501,9.14-0.018,12.623L46.354,64L24.108,86.246c-3.483,3.484-3.472,9.133,0.018,12.623l5.005,5.006  c3.492,3.492,9.14,3.502,12.623,0.018L64,81.647l22.247,22.246c3.48,3.481,9.131,3.475,12.622-0.019l5.006-5.006  c3.489-3.489,3.498-9.142,0.019-12.622L81.646,64z"/>
    </symbol>

    <symbol id="arrow-left"  viewBox="0 0 256 256">
        <path d="M120,32,24,128l96,96V176h88a8,8,0,0,0,8-8V88a8,8,0,0,0-8-8H120Z" fill="none" stroke="var(--third-color)" stroke-linecap="round" stroke-linejoin="round" stroke-width="16"/>
    </symbol>
    <symbol id="expand" fill="var(--third-color)" viewBox="0 0 32 32">
        <path fill="var(--third-color)" d="M14.77,23.795L5.185,14.21c-0.879-0.879-0.879-2.317,0-3.195l0.8-0.801c0.877-0.878,2.316-0.878,3.194,0  l7.315,7.315l7.316-7.315c0.878-0.878,2.317-0.878,3.194,0l0.8,0.801c0.879,0.878,0.879,2.316,0,3.195l-9.587,9.585  c-0.471,0.472-1.104,0.682-1.723,0.647C15.875,24.477,15.243,24.267,14.77,23.795z"/>
    </symbol>
    <symbol id="collaps" fill="var(--third-color)" viewBox="0 0 32 32">
        <path fill="var(--third-color)" d="M18.221,7.206l9.585,9.585c0.879,0.879,0.879,2.317,0,3.195l-0.8,0.801c-0.877,0.878-2.316,0.878-3.194,0  l-7.315-7.315l-7.315,7.315c-0.878,0.878-2.317,0.878-3.194,0l-0.8-0.801c-0.879-0.878-0.879-2.316,0-3.195l9.587-9.585  c0.471-0.472,1.103-0.682,1.723-0.647C17.115,6.524,17.748,6.734,18.221,7.206z"/>
    </symbol>
    <symbol id="money" viewBox="0 0 50 50">
        <rect fill = "#88f88f" width="40" height="20" x="1" y="11" stroke="#0b5900" stroke-width="1"/>
        <rect fill = "#88f88f" width="40" height="20" x="4" y="14" stroke="#0b5900" stroke-width="1"/>
        
        <rect fill = "#0b5900" width="34" height="14" x="7" y="17"/>
        <circle fill = "#88f88f"  cx="7" cy="17" r="3"/>
        <circle fill = "#88f88f"  cx="41" cy="17" r="3"/>
        <circle fill = "#88f88f"  cx="7" cy="31" r="3"/>
        <circle fill = "#88f88f"  cx="41" cy="31" r="3"/>
        <rect fill = "none" width="40" height="20" x="4" y="14" stroke="#0b5900" stroke-width="1"/>
           
        <circle fill = "white"  cx="24" cy="24" r="5.5"/>
        <circle fill = "white"  cx="35" cy="24" r="2"/>
        <circle fill = "white"  cx="13" cy="24" r="2"/>
     
        <rect fill = "var(--accent-color)" width="12" height="3" x="29" y="21" stroke="black" stroke-width="0.75"/>
        <rect fill = "var(--accent-color)" width="12" height="3" x="27" y="24" stroke="black" stroke-width="0.75"/>
        <rect fill = "var(--accent-color)" width="12" height="3" x="29" y="27" stroke="black" stroke-width="0.75"/>
        <rect fill = "var(--accent-color)" width="12" height="3" x="31" y="30" stroke="black" stroke-width="0.75"/>
        <rect fill = "var(--accent-color)" width="12" height="3" x="29" y="33" stroke="black" stroke-width="0.75"/>
        <rect fill = "var(--accent-color)" width="12" height="3" x="29" y="36" stroke="black" stroke-width="0.75"/>
        
        <circle fill = "var(--accent-color)" cx="41" cy="35" r="6" stroke="black" stroke-width="0.75"/>
        <circle fill = "var(--accent-color)" cx="41" cy="35" r="4.5" stroke="black" stroke-width="0.75"/>
    </symbol>
    <symbol id="share" fill="var(--share-color)" viewBox="0 0 32 33" stroke-width="1" stroke="var(--share-color2)">
        <path d="m 6.5, 1 20,0 0,11.5" />
        <path d="m 20,30 -15.49921,-8e-4 10e-6,-26.4969 15.99857,-8e-4 3.99985,3.9998 7.8e-4,12.9989"/>
        <path d="m 20,3.363 0,3.9999 4,0" />
        <path d="m 7,6.3629 1.48614,0" />
        <path d="m 7,8.3629 4.23576,-10e-5"/>
        <path d="m 13.25,18.8626 6.735757,-2e-4"/>
        <path d="m 18,22.8623 -7.985938,0"/>
        <path d="m 8,18.8624 3.485758,2e-4" />
        <path d="m 18.5,20.8625 1.485757,-2e-4"/>
        <path d="m 8,20.8623 4.235758,2e-4"/>
        <path d="m 14,20.8625 2.735758,-10e-5"/>
        <path d="m 10.25,6.3629 0.98623,0"/>
        <path d="m 11.75,12.8627 -3.73576,1e-4" />
        <path d="m 20,12.8628 -1.48576,-1e-4"/>
        <path d="m 16.75,12.8627 -3.23595,0" />
        <path d="m 14.75,14.8627 -6.73576,-2e-4"/>
        <path d="m 20,14.8625 -3.48576,10e-5"/>
        <path d="m 9.5,16.8626 -1.48576,-2e-4"/>
        <path d="m 20,16.8624 -4.23576,10e-5"/>
        <path d="m 14,16.8626 -2.73576,-10e-5" />
        <path d="m 27.875,23.529 c -1.46837,0 -2.87223,-0.6033 -3.88446,-1.6665 -1.03927,1.0676 -2.4097,1.6577 -3.8829,1.6665 -0.92592,7.0369 3.88313,8.3332 3.88313,8.3332 0,0 4.80905,-1.2963 3.88423,-8.3332 z"/>
        <path d="m 26.5,21.6125 0,-10.2497" /> 
    </symbol>
    <symbol id="eye" viewBox="0 0 32 32">
        <path d="M16 6c-6.979 0-13.028 4.064-16 10 2.972 5.936 9.021 10 16 10s13.027-4.064 16-10c-2.972-5.936-9.021-10-16-10zM23.889 11.303c1.88 1.199 3.473 2.805 4.67 4.697-1.197 1.891-2.79 3.498-4.67 4.697-2.362 1.507-5.090 2.303-7.889 2.303s-5.527-0.796-7.889-2.303c-1.88-1.199-3.473-2.805-4.67-4.697 1.197-1.891 2.79-3.498 4.67-4.697 0.122-0.078 0.246-0.154 0.371-0.228-0.311 0.854-0.482 1.776-0.482 2.737 0 4.418 3.582 8 8 8s8-3.582 8-8c0-0.962-0.17-1.883-0.482-2.737 0.124 0.074 0.248 0.15 0.371 0.228v0zM16 13c0 1.657-1.343 3-3 3s-3-1.343-3-3 1.343-3 3-3 3 1.343 3 3z" fill="grey"></path>
    </symbol>
     <symbol id="closedEye" viewBox="0 0 32 32">
        <path d="M29.561 0.439c-0.586-0.586-1.535-0.586-2.121 0l-6.318 6.318c-1.623-0.492-3.342-0.757-5.122-0.757-6.979 0-13.028 4.064-16 10 1.285 2.566 3.145 4.782 5.407 6.472l-4.968 4.968c-0.586 0.586-0.586 1.535 0 2.121 0.293 0.293 0.677 0.439 1.061 0.439s0.768-0.146 1.061-0.439l27-27c0.586-0.586 0.586-1.536 0-2.121zM13 10c1.32 0 2.44 0.853 2.841 2.037l-3.804 3.804c-1.184-0.401-2.037-1.521-2.037-2.841 0-1.657 1.343-3 3-3zM3.441 16c1.197-1.891 2.79-3.498 4.67-4.697 0.122-0.078 0.246-0.154 0.371-0.228-0.311 0.854-0.482 1.776-0.482 2.737 0 1.715 0.54 3.304 1.459 4.607l-1.904 1.904c-1.639-1.151-3.038-2.621-4.114-4.323z" fill="grey"></path>
        <path d="M24 13.813c0-0.849-0.133-1.667-0.378-2.434l-10.056 10.056c0.768 0.245 1.586 0.378 2.435 0.378 4.418 0 8-3.582 8-8z" fill="grey"/>
        <path d="M25.938 9.062l-2.168 2.168c0.040 0.025 0.079 0.049 0.118 0.074 1.88 1.199 3.473 2.805 4.67 4.697-1.197 1.891-2.79 3.498-4.67 4.697-2.362 1.507-5.090 2.303-7.889 2.303-1.208 0-2.403-0.149-3.561-0.439l-2.403 2.403c1.866 0.671 3.873 1.036 5.964 1.036 6.978 0 13.027-4.064 16-10-1.407-2.81-3.504-5.2-6.062-6.938z" fill="grey"></path>
    </symbol>
    <symbol id="facebook" viewBox="0 0 48 48">
        <path fill="#2374F2" d="M24,4C12.954,4,4,12.954,4,24s8.954,20,20,20s20-8.954,20-20S35.046,4,24,4z"/>
        <path fill="url(#GRADIENT)" d="M24,4C12.954,4,4,12.954,4,24s8.954,20,20,20s20-8.954,20-20S35.046,4,24,4z"/>
        <path fill="#fff" d="M26.707,29.301h5.176l0.813-5.258h-5.989v-2.874c0-2.184,0.714-4.121,2.757-4.121h3.283V12.46 c-0.577-0.078-1.797-0.248-4.102-0.248c-4.814,0-7.636,2.542-7.636,8.334v3.498H16.06v5.258h4.948v14.452 C21.988,43.9,22.981,44,24,44c0.921,0,1.82-0.084,2.707-0.204V29.301z"/>
    </symbol>
    <symbol id="google" viewBox="0 0 18 18" >
        <path d="M17.6589 7.33402C17.737 7.33402 17.8003 7.39888 17.8003 7.47889V9C17.8003 9.56932 17.7487 10.126 17.6497 10.666C16.8835 14.8604 13.2752 18.0303 8.95014 17.9998C4.09707 17.9655 0.213154 13.9498 0.223899 8.97972C0.234576 4.01857 4.16518 0 9.0121 0C11.3867 0 13.5413 0.964758 15.1232 2.53188C15.1803 2.58845 15.1818 2.68168 15.1256 2.7392L13.0242 4.89115C12.9701 4.94656 12.8827 4.948 12.8273 4.89396C11.8345 3.92614 10.4912 3.33197 9.0121 3.33197C5.95781 3.33197 3.49831 5.83284 3.47757 8.96066C3.45673 12.109 5.94271 14.668 9.0121 14.668C11.5025 14.668 13.6089 12.9832 14.3034 10.666H9.15357C9.07544 10.666 9.0121 10.6011 9.0121 10.5211V7.47886C9.0121 7.39884 9.07544 7.33398 9.15357 7.33398H17.6589V7.33402Z" fill="#2196F3"/>
        <path d="M17.6585 7.33398H16.5976C16.6757 7.33398 16.739 7.39885 16.739 7.47886V8.99997C16.739 9.56929 16.6874 10.126 16.5884 10.666C15.8575 14.6675 12.5397 17.7365 8.48071 17.9837C8.63602 17.9931 8.79235 17.9986 8.94979 17.9997C13.2749 18.0303 16.8832 14.8604 17.6493 10.666C17.7484 10.126 17.8 9.56929 17.8 8.99997V7.47883C17.8 7.39885 17.7366 7.33398 17.6585 7.33398Z" fill="#1E88E5"/>
        <path d="M3.98457 6.62632L1.31555 4.65138C2.81292 1.87787 5.69834 0 9.01171 0C11.3864 0 13.5409 0.964758 15.1228 2.53188C15.1799 2.58845 15.1814 2.68168 15.1252 2.7392L13.0238 4.89115C12.9698 4.94645 12.8824 4.94817 12.8271 4.89424C11.8343 3.92625 10.4909 3.332 9.01171 3.332C6.78266 3.332 4.86126 4.68144 3.98457 6.62632Z" fill="#F44336"/>
        <path d="M3.21411 6.05622L3.98463 6.62635C4.78484 4.85117 6.45556 3.57268 8.43601 3.36297C8.45091 3.36132 8.46522 3.35931 8.48039 3.35784C8.30611 3.34089 8.12948 3.33203 7.95083 3.33203C5.9372 3.33203 4.18229 4.41917 3.21411 6.05622Z" fill="#E53935"/>
        <path d="M14.0619 2.53188C14.119 2.58845 14.1205 2.68168 14.0643 2.73923L12.3587 4.4859C12.5221 4.61317 12.6785 4.74929 12.8269 4.894C12.8824 4.94803 12.9698 4.94659 13.0239 4.89118L15.1252 2.73923C15.1814 2.68168 15.1799 2.58848 15.1228 2.53188C13.541 0.964758 11.3864 0 9.01176 0C8.83355 0 8.65676 0.00608203 8.4812 0.0168047C10.6453 0.148816 12.5987 1.08232 14.0619 2.53188Z" fill="#E53935"/>
        <path d="M15.4585 15.1164C13.8537 16.89 11.5592 18 9.01182 18C5.57116 18 2.59236 15.9751 1.14978 13.0252L3.87465 11.1129C4.69233 13.1965 6.68445 14.668 9.01182 14.668C10.4724 14.668 11.8007 14.0885 12.7895 13.1418L15.4585 15.1164Z" fill="#4CAF50"/>
        <path d="M3.87467 11.1129L3.07117 11.6768C4.0044 13.4572 5.8396 14.668 7.95087 14.668C8.12941 14.668 8.3059 14.659 8.48012 14.6421C6.38437 14.4375 4.62929 13.0359 3.87467 11.1129Z" fill="#43A047"/>
        <path d="M9.01181 18.0001C11.5592 18.0001 13.8537 16.89 15.4585 15.1165L14.8048 14.6328C13.2979 16.5534 11.0373 17.8275 8.48267 17.9837C8.65774 17.9944 8.83413 18.0001 9.01181 18.0001Z" fill="#43A047"/>
        <path d="M3.47711 8.99998C3.47711 9.74677 3.61821 10.4599 3.87461 11.1129L1.14971 13.0252C0.557017 11.8141 0.223511 10.4469 0.223511 8.99998C0.223511 7.42273 0.619599 5.94034 1.31559 4.65137L3.9846 6.6263C3.65889 7.3481 3.47711 8.15251 3.47711 8.99998Z" fill="#FFC107"/>
        <path d="M3.0711 11.6768L3.8746 11.1129C3.6182 10.4599 3.47711 9.74676 3.47711 8.99997C3.47711 8.15249 3.65888 7.34808 3.98459 6.62628L3.21408 6.05615C2.71373 6.90219 2.42334 7.89497 2.41627 8.96066C2.40975 9.94342 2.64754 10.8688 3.0711 11.6768Z" fill="#FFB300"/>
    </symbol>
     <symbol id="lock" viewBox="0 0 24 24">
       <path d="m12 3c-2.7614 0-5 2.6-5 6v1c0 0.5 0.3731 1 0.8333 1 0.4603 0 0.8334-0.5 0.8334-1v-1c0-2.4 1.4923-4.3 3.3333-4.3s3.333 1.9 3.333 4.3v1c0 0.5 0.373 1 0.834 1 0.46 0 0.833-0.5 0.833-1v-1c0-3.4-2.239-6-5-6z" fill="#7f8c8d"/>
       <path d="m6 9c-1.1046 0-2 0.9-2 2v7c0 1.1 0.8954 2 2 2h12c1.105 0 2-0.9 2-2v-7c0-1.1-0.895-2-2-2h-12z" fill="#f1c40f"/>
       <path d="m12 1029.9c-3.3137 0-6 2.7-6 6v1c0 0.6 0.4477 1 1 1s1-0.4 1-1v-1c0-2.3 1.7909-4.2 4-4.2 2.209 0 4 1.9 4 4.2v1c0 0.6 0.448 1 1 1s1-0.4 1-1v-1c0-3.3-2.686-6-6-6z" fill="#bdc3c7"/>
       <path d="m6 11c-1.1046 0-2 0.9-2 2v7c0 1.1 0.8954 2 2 2h12c1.105 0 2-0.9 2-2v-7c0-1.1-0.895-2-2-2h-12z" fill="#f39c12"/>
       <path d="m6.327 9c-0.3403 0-0.6569 0.1-0.9375 0.2 0.222 0.9 1.0056 1.5 1.9375 1.5 1.0193 0 1.845-0.8 1.9688-1.7h-2.9688z" fill="#7f8c8d"/>
       <path d="m17.792 8.9c0.34 0 0.657 0.1 0.937 0.3-0.222 0.8-1.005 1.5-1.937 1.5-1.02 0-1.845-0.8-1.969-1.8h2.969z" fill="#7f8c8d"/>
       <path d="m12 2c-3.3137 0-6 2.6-6 6v1c0 0.5 0.4477 1 1 1s1-0.5 1-1v-1c0-2.4 1.7909-4.3 4-4.3 2.209 0 4 1.9 4 4.3v1c0 0.5 0.448 1 1 1s1-0.5 1-1v-1c0-3.4-2.686-6-6-6z" fill="#95a5a6"/>
       <rect height="1" width="12" x="6" y="13" fill="#e67e22"/>
       <rect height="1" width="12" x="6" y="15" fill="#e67e22"/>
       <rect height="1" width="12" x="6" y="17" fill="#e67e22"/>
       <rect height="1" width="12" x="6" y="19" fill="#e67e22"/>
    </symbol>

    <symbol id="firework" viewBox="0 0 64 64">
        <circle fill = "#ffa000"  cx="32" cy="32" r="4">
            <animate attributeName="cx" to="60" repeatCount="indefinite"  dur="1s"/>
            <animate attributeName="r" to="0" repeatCount="indefinite" dur="1s"/>
            <animate attributeName="fill" to="#49e1af" repeatCount="indefinite" dur="1s"/>
        </circle>
        <line x1="32" y1="32" x2="32" y2="32" stroke="#ffa000" stroke-width="1" >
            <animate attributeName="x1" to="40" repeatCount="indefinite"  dur="1s"/>
            <animate attributeName="x2" to="50" repeatCount="indefinite" dur="1s"/>
        </line>

        <circle fill = "#ffa000"  cx="32" cy="32" r="4">
            <animate attributeName="cx" to="51.8" repeatCount="indefinite" dur="1s"/>
            <animate attributeName="cy" to="51.8" repeatCount="indefinite" dur="1s"/>
            <animate attributeName="r" to="0" repeatCount="indefinite" dur="1s"/>
            <animate attributeName="fill" to="#49e1af" repeatCount="indefinite" dur="1s"/>
        </circle>
        <line x1="32" y1="32" x2="32" y2="32" stroke="#ffa000" >
            <animate attributeName="x1" to="37.7" repeatCount="indefinite"  dur="1s"/>
            <animate attributeName="y1" to="37.7" repeatCount="indefinite"  dur="1s"/>
            <animate attributeName="x2" to="44.7" repeatCount="indefinite" dur="1s"/>
            <animate attributeName="y2" to="44.7" repeatCount="indefinite" dur="1s"/>
        </line>

        <circle fill = "#ffa000"  cx="32" cy="32" r="4">
            <animate attributeName="cy" to="60" repeatCount="indefinite" dur="1s"/>
            <animate attributeName="r" to="0" repeatCount="indefinite" dur="1s"/>
            <animate attributeName="fill" to="#49e1af" repeatCount="indefinite" dur="1s"/>
        </circle>
        <line x1="32" y1="32" x2="32" y2="32" stroke="#ffa000" >
            <animate attributeName="y1" to="40" repeatCount="indefinite"  dur="1s"/>
            <animate attributeName="y2" to="50" repeatCount="indefinite" dur="1s"/>
        </line>

        <circle fill = "#ffa000"  cx="32" cy="32" r="4">
            <animate attributeName="cx" to="12.2" repeatCount="indefinite" dur="1s"/>
            <animate attributeName="cy" to="51.8" repeatCount="indefinite" dur="1s"/>
            <animate attributeName="r" to="0" repeatCount="indefinite" dur="1s"/>
            <animate attributeName="fill" to="#49e1af" repeatCount="indefinite" dur="1s"/>
        </circle>
        <line x1="32" y1="32" x2="32" y2="32" stroke="#ffa000" >
            <animate attributeName="x1" to="26.3" repeatCount="indefinite"  dur="1s"/>
            <animate attributeName="y1" to="37.7" repeatCount="indefinite"  dur="1s"/>
            <animate attributeName="x2" to="19.3" repeatCount="indefinite" dur="1s"/>
            <animate attributeName="y2" to="44.7" repeatCount="indefinite" dur="1s"/>
        </line>

        <circle fill = "#ffa000"  cx="32" cy="32" r="4">
            <animate attributeName="cx" to="4" repeatCount="indefinite" dur="1s"/>
            <animate attributeName="r" to="0" repeatCount="indefinite" dur="1s"/>
            <animate attributeName="fill" to="#49e1af" repeatCount="indefinite" dur="1s"/>
        </circle>
        <line x1="32" y1="32" x2="32" y2="32" stroke="#ffa000" >
            <animate attributeName="x1" to="24" repeatCount="indefinite"  dur="1s"/>
            <animate attributeName="x2" to="14" repeatCount="indefinite" dur="1s"/>
        </line>

        <circle fill = "#ffa000"  cx="32" cy="32" r="4">
            <animate attributeName="cx" to="12.2" repeatCount="indefinite" dur="1s"/>
            <animate attributeName="cy" to="12.2" repeatCount="indefinite" dur="1s"/>
            <animate attributeName="r" to="0" repeatCount="indefinite" dur="1s"/>
            <animate attributeName="fill" to="#49e1af" repeatCount="indefinite" dur="1s"/>
        </circle>
        <line x1="32" y1="32" x2="32" y2="32" stroke="#ffa000" >
            <animate attributeName="x1" to="26.3" repeatCount="indefinite"  dur="1s"/>
            <animate attributeName="y1" to="26.3" repeatCount="indefinite"  dur="1s"/>
            <animate attributeName="x2" to="19.3" repeatCount="indefinite" dur="1s"/>
            <animate attributeName="y2" to="19.3" repeatCount="indefinite" dur="1s"/>
        </line>

        <circle fill = "#ffa000"  cx="32" cy="32" r="4">
            <animate attributeName="cy" to="4" repeatCount="indefinite" dur="1s"/>
            <animate attributeName="r" to="0" repeatCount="indefinite" dur="1s"/>
            <animate attributeName="fill" to="#49e1af" repeatCount="indefinite" dur="1s"/>
        </circle>
        <line x1="32" y1="32" x2="32" y2="32" stroke="#ffa000" >
            <animate attributeName="y1" to="24" repeatCount="indefinite"  dur="1s"/>
            <animate attributeName="y2" to="14" repeatCount="indefinite" dur="1s"/>
        </line>
        <circle fill = "#ffa000"  cx="32" cy="32" r="4">
            <animate attributeName="cx" to="51.8" repeatCount="indefinite" dur="1s"/>
            <animate attributeName="cy" to="12.2" repeatCount="indefinite" dur="1s"/>
            <animate attributeName="r" to="0" repeatCount="indefinite" dur="1s"/>
            <animate attributeName="fill" to="#49e1af" repeatCount="indefinite" dur="1s"/>
        </circle>
        <line x1="32" y1="32" x2="32" y2="32" stroke="#ffa000" >
            <animate attributeName="x1" to="37.7" repeatCount="indefinite"  dur="1s"/>
            <animate attributeName="y1" to="26.3" repeatCount="indefinite"  dur="1s"/>
            <animate attributeName="x2" to="44.7" repeatCount="indefinite" dur="1s"/>
            <animate attributeName="y2" to="19.3" repeatCount="indefinite" dur="1s"/>
        </line>
    </symbol>
</svg>

